<svg width="640" height="360" viewBox="0 0 640 360" fill="none" xmlns="http://www.w3.org/2000/svg">
  <defs>
    <linearGradient id="darkLineA" x1="0" y1="0" x2="640" y2="360" gradientUnits="userSpaceOnUse">
      <stop stop-color="#38BDF8" stop-opacity="0.32" />
      <stop offset="1" stop-color="#FBBF24" stop-opacity="0.28" />
    </linearGradient>
    <linearGradient id="darkLineB" x1="640" y1="0" x2="0" y2="360" gradientUnits="userSpaceOnUse">
      <stop stop-color="#A78BFA" stop-opacity="0.26" />
      <stop offset="1" stop-color="#22D3EE" stop-opacity="0.22" />
    </linearGradient>
  </defs>

  <circle cx="74" cy="70" r="84" fill="#38BDF8" fill-opacity="0.14" />
  <circle cx="560" cy="294" r="104" fill="#FBBF24" fill-opacity="0.1" />
  <circle cx="464" cy="62" r="62" fill="#A78BFA" fill-opacity="0.12" />

  <path d="M-30 214C86 136 180 148 300 220C420 292 512 286 684 150" stroke="url(#darkLineA)" stroke-width="2.4" />
  <path d="M-34 264C106 162 214 184 330 246C446 308 542 304 694 200" stroke="url(#darkLineB)" stroke-width="2" />
  <path d="M-10 98C88 44 178 56 278 108C378 160 490 170 650 92" stroke="#67E8F9" stroke-opacity="0.26" stroke-width="1.8" />

  <path d="M82 28L124 28M103 7L103 49" stroke="#FBBF24" stroke-opacity="0.34" stroke-width="2" stroke-linecap="round" />
  <path d="M518 292L560 292M539 271L539 313" stroke="#38BDF8" stroke-opacity="0.3" stroke-width="2" stroke-linecap="round" />
</svg>
